<svg width="161" height="45" fill="none" xmlns="http://www.w3.org/2000/svg"><g clip-path="url(#clip0)" fill="#B6C0CB"><path d="M33.53 2.647c-.552.33-.993.662-1.214.993-1.213 1.764-3.309 6.176-6.287 13.125H12.463c3.64-8.052 6.508-12.905 8.603-14.56H10.368c-1.655 0-2.978.111-4.081.332-1.103.22-2.206.772-3.31 1.764C1.766 5.184.883 6.618.332 8.382c-.11.22-.11.331-.11.442 0 .44.11.661.44.661.11 0 .11 0 .221-.11.331-1.544 1.986-2.757 4.743-3.75 2.757-.993 5.515-1.544 8.162-1.654-1.103 1.213-3.53 6.397-7.39 15.44C3.529 26.25 1.654 31.545.772 35.405h6.176c-.11-.22-.22-.551-.22-.992 0-1.544.551-3.86 1.544-6.949.993-3.088 2.095-5.845 3.088-8.272h13.456c-2.537 6.397-3.86 10.92-3.86 13.566 0 2.096.992 3.089 2.867 3.089.993 0 2.317-.221 3.86-.772 1.655-.552 2.427-1.103 2.427-1.655 0-.22 0-.33-.11-.33-.772.44-1.324.661-1.875.661-1.213 0-1.765-.882-1.765-2.757 0-3.64 2.096-10.037 6.397-19.191 2.537-5.184 4.522-8.383 6.066-9.596h-3.088c-.882 0-1.654.11-2.206.441z"/><path d="M54.264 23.382c-.11 0-.22.11-.33.331-1.434 2.758-2.978 4.191-4.633 4.191-.882 0-1.544-.33-2.095-.992.661-1.655.992-3.309.992-4.853 0-3.97-1.875-5.956-5.625-5.956-2.206 0-4.301.772-6.066 2.316-1.875 1.544-3.198 3.309-4.08 5.405-.883 2.095-1.324 4.19-1.324 6.176 0 1.985.551 3.42 1.544 4.412.992.992 2.316 1.434 3.86 1.434 2.427 0 4.522-.662 6.066-1.986 1.544-1.323 2.978-3.088 4.081-5.294a4.573 4.573 0 002.758.883c1.102 0 2.206-.552 3.419-1.545 1.213-.992 1.875-2.205 1.875-3.75-.22-.551-.22-.772-.442-.772zm-8.492-2.647c-.772 0-1.434.22-1.875.772-.441.552-.662 1.214-.662 2.096 0 1.434.552 2.537 1.654 3.42a19.122 19.122 0 01-2.977 4.742c-1.103 1.434-2.427 2.206-3.75 2.206-1.655-.11-2.427-1.103-2.427-2.978 0-1.875.552-4.081 1.765-6.397 2.095-4.302 4.191-6.397 6.397-6.397 1.434 0 2.206.882 2.316 2.536h-.441z"/><path d="M58.125 23.493l.772-2.206c1.875-1.765 3.97-4.081 6.287-7.06 2.316-2.977 4.08-5.514 5.184-7.83.772-1.323 1.103-2.647 1.103-3.86C71.47.882 70.588.11 68.713.11c-1.764 0-3.53.883-5.073 2.758a48.306 48.306 0 00-2.206 2.757c-.662.882-1.324 2.096-1.985 3.53-.662 1.543-1.214 2.647-1.655 3.64-.441.882-.882 2.205-1.434 3.75-.551 1.653-.882 2.646-1.103 3.198-2.095 5.956-3.198 10.036-3.198 12.463 0 2.426.882 3.64 2.647 3.64 2.316 0 4.522-1.214 6.728-3.64 1.103-1.213 2.537-3.309 4.191-6.177.33-.551.441-1.102.441-1.654 0-.552-.11-.882-.33-.882-.111 0-.332.33-.773.992-.44.662-.882 1.544-1.544 2.427a16.681 16.681 0 01-1.544 2.316 12.316 12.316 0 01-2.096 2.095c-.992.773-1.764 1.214-2.536 1.214-.662 0-.993-.441-.993-1.434 0-.662.11-1.765.441-3.42a65.13 65.13 0 001.434-4.19zm11.03-22.28h.33c.442 0 .662.331.662.883 0 .661-.441 1.875-1.324 3.97-1.544 3.309-4.521 7.5-8.933 12.574 4.19-11.691 7.28-17.427 9.264-17.427z"/><path d="M80.736 17.096a3.31 3.31 0 00-.883.44c-.22.221-.441.442-.662.552-.11.11-.33.441-.551.772l-.441.883c-.11.22-.22.661-.552 1.213-.22.551-.44 1.103-.551 1.434-.993 2.316-2.316 4.522-4.081 6.838-1.765 2.316-3.199 3.42-4.412 3.42-.551 0-.882-.552-.882-1.655 0-1.986.661-4.522 1.985-7.5 1.324-2.978 2.647-4.964 3.97-6.177.221-.22.331-.33.331-.441 0-.11-.11-.22-.22-.22-1.655 0-2.978.22-3.97.661-.993.441-1.876 1.324-2.758 2.758-.882 1.433-1.765 3.308-2.427 5.845-.772 2.427-1.102 4.302-1.102 5.625 0 1.324.22 2.316.772 2.978.551.662 1.213.993 1.985.993.882 0 1.544-.11 2.206-.331.662-.22 1.434-.772 2.537-1.655 1.102-.882 2.426-2.316 3.86-4.19l-2.758 7.279c-1.764 4.632-3.86 6.948-6.507 6.948-.662 0-1.213-.22-1.654-.551-.441-.331-.662-.883-.662-1.434 0-1.103.33-1.765.882-1.985-.11-.331-.44-.552-.772-.883-.33-.22-.882-.33-1.433-.33-.552 0-.993.33-1.434.882a2.995 2.995 0 00-.662 1.875c0 1.323.551 2.316 1.654 2.978 1.103.661 2.427.882 4.081.882 1.544 0 3.199-.441 4.743-1.213 1.544-.772 2.868-1.765 3.86-3.088.993-1.324 1.985-3.089 2.758-5.295.33-.772.661-1.764 1.102-3.088.442-1.323.773-2.206.883-2.537l.992-2.977a59.176 59.176 0 012.096-5.405c.993-2.426 1.985-3.86 2.978-4.522h-1.985c-.442 0-1.324.11-2.317.22zM91.543 3.86c-2.206 1.655-3.198 3.86-3.198 6.618 0 1.654.33 2.978 1.103 4.191.662 1.213 1.654 2.316 2.647 3.42 1.103 1.102 1.654 1.764 1.654 1.764 2.757 2.868 4.081 5.404 4.081 7.39 0 2.095-.772 3.75-2.206 5.183-1.434 1.324-3.088 2.096-5.073 2.096-1.324 0-2.427-.33-3.31-.993-.882-.661-1.212-1.654-1.212-2.867s.551-2.316 1.654-3.199c-.441-.992-1.434-1.434-2.757-1.434-1.324 0-2.427.442-3.089 1.434-.772.883-1.102 1.985-1.102 3.088 0 1.986.882 3.53 2.646 4.523 1.765.992 4.192 1.433 7.06 1.433 3.529 0 6.617-1.103 9.264-3.198 2.537-2.096 3.86-4.632 3.86-7.39 0-2.867-1.213-5.515-3.64-7.83-.22-.221-.882-.883-2.095-1.986s-2.096-1.875-2.537-2.427c-.551-.551-1.103-1.323-1.654-2.205-.552-.993-.883-1.875-.883-2.647 0-1.545.552-2.758 1.765-3.86 1.213-1.104 2.758-1.655 4.522-1.655 1.103 0 1.986.22 2.758.772.772.551 1.103 1.213 1.103 1.985s-.331 1.544-.993 2.206c-.662.662-1.324.993-2.206.993-.11.33-.11.661-.11.772 0 1.323.772 2.095 2.426 2.095 1.655 0 2.868-.551 3.75-1.764a5.987 5.987 0 001.324-3.75c0-1.324-.662-2.537-1.875-3.42-1.324-.992-3.419-1.433-6.287-1.433-2.647-.441-5.184.44-7.39 2.095zm35.846 19.412c-.11 0-.331.33-.772.993-.441.662-.883 1.544-1.544 2.426a15.388 15.388 0 01-1.655 2.427 10.756 10.756 0 01-1.985 1.875c-.772.551-1.434.882-1.985.882-.552 0-.883-.22-1.214-.552-.661-.771-1.102-2.757-1.433-6.066 1.985-.33 3.75-.992 5.294-2.095 1.544-1.103 2.316-2.427 2.316-4.191 0-.773-.221-1.324-.772-1.765-.552-.441-1.213-.662-2.206-.662-1.654 0-3.419.772-5.294 2.206-1.985 1.434-3.64 3.198-5.184 5.184l.882-2.427c3.309-3.309 6.397-6.728 9.045-10.367 2.647-3.64 3.97-6.618 3.97-8.824 0-1.544-.882-2.426-2.647-2.426-.882 0-1.875.33-2.978.992-.441.22-.882.662-1.323 1.214a15.83 15.83 0 01-1.214 1.323c-.331.331-.772.882-1.213 1.655-.441.661-.772 1.213-.993 1.654-.22.33-.551.993-.992 1.765-.441.772-.662 1.323-.883 1.654-.11.33-.441.772-.772 1.544-.33.772-.551 1.213-.551 1.213-.882 1.875-2.316 5.625-4.302 11.25-1.875 5.625-3.419 9.265-4.301 11.14h2.868c.551 0 1.213-.441 1.875-1.323.661-.883 1.323-2.206 2.095-3.971.772-1.765 1.324-2.868 1.544-3.309 2.647-4.742 5.074-7.169 7.28-7.169.992 0 1.544.441 1.544 1.324 0 1.102-.662 1.985-1.875 2.647a9.031 9.031 0 01-4.191.992c-.993 0-1.434 1.544-1.434 4.743 0 1.544.331 2.978.993 4.301.661 1.324 1.654 1.986 2.977 1.986 2.427 0 4.743-1.544 7.28-4.743 1.103-1.544 2.316-3.198 3.419-5.073.331-.552.551-1.103.551-1.765.111-.331 0-.662-.22-.662zm-4.853-21.948c.441 0 .662.33.662.882 0 1.103-.441 2.537-1.434 4.191-1.655 3.309-4.522 7.28-8.603 12.022 4.522-11.47 7.61-17.095 9.375-17.095zm18.64 7.5c0-.442-.221-.883-.552-1.214-.331-.33-.882-.44-1.544-.44s-1.434.44-2.206 1.212c-.772.883-1.103 1.655-1.103 2.537 0 .772.441 1.434 1.213 1.765.221-.552.662-1.103 1.214-1.655a2.582 2.582 0 011.875-.772h.22c.552-.551.883-.992.883-1.433z"/><path d="M130.037 19.191c-2.647 4.633-3.971 8.934-3.971 12.794 0 2.427.883 3.75 2.647 3.75.993 0 2.096-.44 3.419-1.434a19.44 19.44 0 003.309-3.419c.993-1.323 1.985-2.978 3.199-4.963a3.11 3.11 0 00.441-1.654c0-.552-.11-.883-.331-.883-.11 0-.331.331-.772.993-.441.662-.882 1.544-1.544 2.427a16.762 16.762 0 01-1.544 2.316c-.441.661-1.103 1.213-1.875 1.764-.772.552-1.324.883-1.765.883-.551 0-.882-.442-.882-1.434 0-.883.22-2.096.772-3.53.551-1.433.992-2.647 1.434-3.419.441-.882.992-2.095 1.875-3.75.882-1.654 1.544-2.757 1.985-3.088h-2.868c-1.213-.22-2.426.772-3.529 2.647z"/><path d="M160.919 24.154c0-.551-.11-.882-.331-.882-.11 0-.331.331-.661.993-.442.662-.883 1.544-1.545 2.426-.551.883-1.103 1.765-1.654 2.316-.441.662-1.103 1.214-1.875 1.765-.772.552-1.324.882-1.765.882-.551 0-.882-.33-.882-1.102 0-1.214.662-3.53 2.096-7.17.661-1.654.992-2.647 1.213-3.198.11-.552.22-1.103.22-1.655 0-1.654-.882-2.426-2.757-2.426-2.647 0-5.404 1.323-8.051 3.86.33-1.213.551-1.985.551-2.316 0-.33-.11-.662-.441-.882-.331-.22-.993-.331-2.096-.331h-1.985c.11.11.11.441.11.662 0 1.323-.551 3.529-1.764 6.838-2.758 6.948-4.192 10.809-4.192 11.47h4.633c0-.11.22-.661.441-1.654.22-.993.551-1.985.772-2.757.221-.883.662-1.986 1.103-3.31.441-1.323.993-2.426 1.544-3.418.551-.993 1.103-1.986 1.765-2.978.661-.993 1.434-1.765 2.206-2.206a4.2 4.2 0 012.426-.772c.882 0 1.213.33 1.213.992 0 .331-.11.662-.22.883-2.427 6.176-3.53 10.367-3.53 12.463 0 2.096.883 3.088 2.758 3.088.992 0 2.095-.44 3.419-1.434a19.512 19.512 0 003.309-3.419c.992-1.323 1.985-2.978 3.198-4.963.662-.662.772-1.213.772-1.765z"/></g><defs><clipPath id="clip0"><path fill="#fff" d="M0 0h160.809v45H0z"/></clipPath></defs></svg>