<svg width="161" height="45" viewBox="0 0 161 45" fill="none" xmlns="http://www.w3.org/2000/svg">
<g clip-path="url(#clip0)">
<path d="M33.5293 2.64705C32.9778 2.97793 32.5366 3.30881 32.316 3.6397C31.1028 5.4044 29.0072 9.81616 26.0293 16.7647H12.4631C16.1028 8.71322 18.9705 3.86028 21.066 2.20587H10.3675C8.71311 2.20587 7.38958 2.31617 6.28664 2.53675C5.18369 2.75734 4.08075 3.30881 2.97781 4.30146C1.76458 5.18381 0.882224 6.61764 0.330753 8.38234C0.220459 8.60293 0.220459 8.71322 0.220459 8.82352C0.220459 9.2647 0.330753 9.48528 0.661635 9.48528C0.77193 9.48528 0.77193 9.48528 0.882224 9.37499C1.21311 7.83087 2.86752 6.61764 5.62487 5.62499C8.38222 4.63234 11.1396 4.08087 13.7866 3.97058C12.6837 5.18381 10.2572 10.3676 6.39693 19.4118C3.52928 26.25 1.65428 31.5441 0.77193 35.4044H6.9484C6.83811 35.1838 6.72781 34.8529 6.72781 34.4118C6.72781 32.8676 7.27928 30.5515 8.27193 27.4632C9.26458 24.375 10.3675 21.6176 11.3602 19.1912H24.816C22.2793 25.5882 20.9558 30.1103 20.9558 32.7573C20.9558 34.8529 21.9484 35.8456 23.8234 35.8456C24.816 35.8456 26.1396 35.625 27.6837 35.0735C29.3381 34.522 30.1102 33.9706 30.1102 33.4191C30.1102 33.1985 30.1102 33.0882 29.9999 33.0882C29.2278 33.5294 28.6763 33.75 28.1249 33.75C26.9116 33.75 26.3602 32.8676 26.3602 30.9926C26.3602 27.3529 28.4558 20.9559 32.7572 11.8015C35.294 6.61764 37.2793 3.41911 38.8234 2.20587H35.7352C34.8528 2.20587 34.0807 2.31617 33.5293 2.64705Z" fill="#B6C0CB"/>
<path d="M54.2645 23.3824C54.1543 23.3824 54.044 23.4927 53.9337 23.7133C52.4998 26.4706 50.9557 27.9044 49.3013 27.9044C48.419 27.9044 47.7572 27.5736 47.2057 26.9118C47.8675 25.2574 48.1984 23.603 48.1984 22.0588C48.1984 18.0883 46.3234 16.103 42.5734 16.103C40.3675 16.103 38.2719 16.875 36.5072 18.4191C34.6322 19.9633 33.3087 21.728 32.4263 23.8236C31.544 25.9191 31.1028 28.0147 31.1028 30C31.1028 31.9853 31.6543 33.4191 32.6469 34.4118C33.6395 35.4044 34.9631 35.8456 36.5072 35.8456C38.9337 35.8456 41.0293 35.1838 42.5734 33.8603C44.1175 32.5368 45.5513 30.7721 46.6543 28.5662C47.4263 29.1177 48.3087 29.4486 49.4116 29.4486C50.5145 29.4486 51.6175 28.8971 52.8307 27.9044C54.044 26.9118 54.7057 25.6986 54.7057 24.1544C54.4851 23.603 54.4851 23.3824 54.2645 23.3824ZM45.7719 20.7353C44.9998 20.7353 44.3381 20.9559 43.8969 21.5074C43.4557 22.0588 43.2351 22.7206 43.2351 23.603C43.2351 25.0368 43.7866 26.1397 44.8895 27.0221C44.1175 28.7868 43.1248 30.3309 41.9116 31.7647C40.8087 33.1986 39.4851 33.9706 38.1616 33.9706C36.5072 33.8603 35.7351 32.8677 35.7351 30.9927C35.7351 29.1177 36.2866 26.9118 37.4998 24.5956C39.5954 20.2941 41.691 18.1986 43.8969 18.1986C45.3307 18.1986 46.1028 19.0809 46.2131 20.7353H45.7719Z" fill="#B6C0CB"/>
<path d="M58.125 23.4926L58.8971 21.2868C60.7721 19.5221 62.8677 17.2059 65.1838 14.2279C67.5 11.25 69.2647 8.71323 70.3677 6.39706C71.1397 5.07353 71.4706 3.75 71.4706 2.53676C71.4706 0.882349 70.5882 0.110291 68.7132 0.110291C66.9485 0.110291 65.1838 0.992643 63.6397 2.86764C62.8677 3.75 62.0956 4.74264 61.4338 5.625C60.7721 6.50735 60.1103 7.72058 59.4485 9.15441C58.7868 10.6985 58.2353 11.8015 57.7941 12.7941C57.353 13.6765 56.9118 15 56.3603 16.5441C55.8088 18.1985 55.478 19.1912 55.2574 19.7426C53.1618 25.6985 52.0588 29.7794 52.0588 32.2059C52.0588 34.6324 52.9412 35.8456 54.7059 35.8456C57.0221 35.8456 59.228 34.6324 61.4338 32.2059C62.5368 30.9926 63.9706 28.8971 65.625 26.0294C65.9559 25.4779 66.0662 24.9265 66.0662 24.375C66.0662 23.8235 65.9559 23.4926 65.7353 23.4926C65.625 23.4926 65.4044 23.8235 64.9633 24.4853C64.5221 25.1471 64.0809 26.0294 63.4191 26.9118C62.8677 27.9044 62.3162 28.6765 61.875 29.2279C61.4338 29.7794 60.7721 30.5515 59.7794 31.3235C58.7868 32.0956 58.0147 32.5368 57.2427 32.5368C56.5809 32.5368 56.25 32.0956 56.25 31.1029C56.25 30.4412 56.3603 29.3382 56.6912 27.6838C57.353 25.9191 57.7941 24.5956 58.125 23.4926ZM69.1544 1.21323H69.4853C69.9265 1.21323 70.1471 1.54411 70.1471 2.09558C70.1471 2.75735 69.7059 3.97058 68.8235 6.06617C67.2794 9.375 64.3015 13.5662 59.8897 18.6397C64.0809 6.94852 67.1691 1.21323 69.1544 1.21323Z" fill="#B6C0CB"/>
<path d="M80.7355 17.0956C80.4046 17.2059 80.184 17.3162 79.8531 17.5368C79.6325 17.7574 79.412 17.9779 79.1914 18.0882C79.0811 18.1985 78.8605 18.5294 78.6399 18.8603L78.1987 19.7427C78.0884 19.9632 77.9781 20.4044 77.6472 20.9559C77.4267 21.5074 77.2061 22.0588 77.0958 22.3897C76.1031 24.7059 74.7796 26.9118 73.0149 29.2279C71.2502 31.5441 69.8164 32.6471 68.6031 32.6471C68.0517 32.6471 67.7208 32.0956 67.7208 30.9927C67.7208 29.0074 68.3825 26.4706 69.7061 23.4927C71.0296 20.5147 72.3531 18.5294 73.6767 17.3162C73.8972 17.0956 74.0075 16.9853 74.0075 16.875C74.0075 16.7647 73.8972 16.6544 73.787 16.6544C72.1325 16.6544 70.809 16.875 69.8164 17.3162C68.8237 17.7574 67.9414 18.6397 67.059 20.0735C66.1767 21.5074 65.2943 23.3824 64.6325 25.9191C63.8605 28.3456 63.5296 30.2206 63.5296 31.5441C63.5296 32.8677 63.7502 33.8603 64.3017 34.5221C64.8531 35.1838 65.5149 35.5147 66.287 35.5147C67.1693 35.5147 67.8311 35.4044 68.4928 35.1838C69.1546 34.9632 69.9267 34.4118 71.0296 33.5294C72.1325 32.6471 73.4561 31.2132 74.8899 29.3382L72.1325 36.6177C70.3678 41.25 68.2722 43.5662 65.6252 43.5662C64.9634 43.5662 64.412 43.3456 63.9708 43.0147C63.5296 42.6838 63.309 42.1324 63.309 41.5809C63.309 40.4779 63.6399 39.8162 64.1914 39.5956C64.0811 39.2647 63.7502 39.0441 63.4193 38.7132C63.0884 38.4926 62.537 38.3824 61.9855 38.3824C61.434 38.3824 60.9928 38.7132 60.5517 39.2647C60.1105 39.8162 59.8899 40.4779 59.8899 41.1397C59.8899 42.4632 60.4414 43.4559 61.5443 44.1177C62.6472 44.7794 63.9708 45 65.6252 45C67.1693 45 68.8237 44.5588 70.3678 43.7868C71.912 43.0147 73.2355 42.0221 74.2281 40.6985C75.2208 39.375 76.2134 37.6103 76.9855 35.4044C77.3164 34.6324 77.6472 33.6397 78.0884 32.3162C78.5296 30.9927 78.8605 30.1103 78.9708 29.7794L79.9634 26.8015C80.5149 25.1471 81.1767 23.3824 82.059 21.3971C83.0517 18.9706 84.0443 17.5368 85.0369 16.875H83.0517C82.6105 16.875 81.7281 16.9853 80.7355 17.0956ZM91.5443 3.8603C89.3384 5.51471 88.3458 7.72059 88.3458 10.4779C88.3458 12.1324 88.6767 13.4559 89.4487 14.6691C90.1105 15.8824 91.1031 16.9853 92.0958 18.0882C93.1987 19.1912 93.7502 19.8529 93.7502 19.8529C96.5075 22.7206 97.8311 25.2574 97.8311 27.2427C97.8311 29.3382 97.059 30.9927 95.6252 32.4265C94.1914 33.75 92.5369 34.5221 90.5517 34.5221C89.2281 34.5221 88.1252 34.1912 87.2428 33.5294C86.3605 32.8677 86.0296 31.875 86.0296 30.6618C86.0296 29.4485 86.5811 28.3456 87.684 27.4632C87.2428 26.4706 86.2502 26.0294 84.9267 26.0294C83.6031 26.0294 82.5002 26.4706 81.8384 27.4632C81.0664 28.3456 80.7355 29.4485 80.7355 30.5515C80.7355 32.5368 81.6178 34.0809 83.3825 35.0735C85.1472 36.0662 87.5737 36.5074 90.4414 36.5074C93.9708 36.5074 97.059 35.4044 99.7061 33.3088C102.243 31.2132 103.566 28.6765 103.566 25.9191C103.566 23.0515 102.353 20.4044 99.9267 18.0882C99.7061 17.8677 99.0443 17.2059 97.8311 16.1029C96.6178 15 95.7355 14.2279 95.2943 13.6765C94.7428 13.125 94.1914 12.3529 93.6399 11.4706C93.0884 10.4779 92.7575 9.59559 92.7575 8.82353C92.7575 7.27942 93.309 6.06618 94.5222 4.96324C95.7355 3.8603 97.2796 3.30883 99.0443 3.30883C100.147 3.30883 101.03 3.52942 101.802 4.08089C102.574 4.63236 102.905 5.29412 102.905 6.06618C102.905 6.83824 102.574 7.6103 101.912 8.27206C101.25 8.93383 100.588 9.26471 99.7061 9.26471C99.5958 9.59559 99.5958 9.92648 99.5958 10.0368C99.5958 11.3603 100.368 12.1324 102.022 12.1324C103.677 12.1324 104.89 11.5809 105.772 10.3677C106.655 9.26471 107.096 7.94118 107.096 6.61765C107.096 5.29412 106.434 4.08089 105.221 3.19853C103.897 2.20589 101.802 1.76471 98.934 1.76471C96.2869 1.32353 93.7502 2.20589 91.5443 3.8603ZM127.39 23.2721C127.28 23.2721 127.059 23.6029 126.618 24.2647C126.177 24.9265 125.735 25.8088 125.074 26.6912C124.522 27.6838 123.971 28.4559 123.419 29.1177C122.868 29.7794 122.206 30.4412 121.434 30.9927C120.662 31.5441 120 31.875 119.449 31.875C118.897 31.875 118.566 31.6544 118.235 31.3235C117.574 30.5515 117.133 28.5662 116.802 25.2574C118.787 24.9265 120.552 24.2647 122.096 23.1618C123.64 22.0588 124.412 20.7353 124.412 18.9706C124.412 18.1985 124.191 17.6471 123.64 17.2059C123.088 16.7647 122.427 16.5441 121.434 16.5441C119.78 16.5441 118.015 17.3162 116.14 18.75C114.155 20.1838 112.5 21.9485 110.956 23.9338L111.838 21.5074C115.147 18.1985 118.235 14.7794 120.883 11.1397C123.53 7.50001 124.853 4.52206 124.853 2.31618C124.853 0.772062 123.971 -0.110291 122.206 -0.110291C121.324 -0.110291 120.331 0.220592 119.228 0.882357C118.787 1.10294 118.346 1.54412 117.905 2.09559C117.463 2.64706 117.022 3.08824 116.691 3.41912C116.36 3.75 115.919 4.30147 115.478 5.07353C115.037 5.7353 114.706 6.28677 114.485 6.72795C114.265 7.05883 113.934 7.72059 113.493 8.49265C113.052 9.26471 112.831 9.81618 112.61 10.1471C112.5 10.4779 112.169 10.9191 111.838 11.6912C111.508 12.4632 111.287 12.9044 111.287 12.9044C110.405 14.7794 108.971 18.5294 106.985 24.1544C105.11 29.7794 103.566 33.4191 102.684 35.2941H105.552C106.103 35.2941 106.765 34.8529 107.427 33.9706C108.088 33.0882 108.75 31.7647 109.522 30C110.294 28.2353 110.846 27.1324 111.066 26.6912C113.713 21.9485 116.14 19.5221 118.346 19.5221C119.338 19.5221 119.89 19.9632 119.89 20.8456C119.89 21.9485 119.228 22.8309 118.015 23.4927C116.691 24.1544 115.368 24.4853 113.824 24.4853C112.831 24.4853 112.39 26.0294 112.39 29.2279C112.39 30.7721 112.721 32.2059 113.383 33.5294C114.044 34.8529 115.037 35.5147 116.36 35.5147C118.787 35.5147 121.103 33.9706 123.64 30.7721C124.743 29.2279 125.956 27.5735 127.059 25.6985C127.39 25.1471 127.61 24.5956 127.61 23.9338C127.721 23.6029 127.61 23.2721 127.39 23.2721ZM122.537 1.32353C122.978 1.32353 123.199 1.65442 123.199 2.20589C123.199 3.30883 122.758 4.74265 121.765 6.39706C120.11 9.70589 117.243 13.6765 113.162 18.4191C117.684 6.94854 120.772 1.32353 122.537 1.32353ZM141.177 8.82353C141.177 8.38236 140.956 7.94118 140.625 7.6103C140.294 7.27942 139.743 7.16912 139.081 7.16912C138.419 7.16912 137.647 7.6103 136.875 8.38236C136.103 9.26471 135.772 10.0368 135.772 10.9191C135.772 11.6912 136.213 12.3529 136.985 12.6838C137.206 12.1324 137.647 11.5809 138.199 11.0294C138.75 10.4779 139.412 10.2574 140.074 10.2574H140.294C140.846 9.70589 141.177 9.26471 141.177 8.82353Z" fill="#B6C0CB"/>
<path d="M130.037 19.1912C127.39 23.8235 126.066 28.125 126.066 31.9853C126.066 34.4118 126.949 35.7353 128.713 35.7353C129.706 35.7353 130.809 35.2941 132.132 34.3015C133.346 33.3088 134.449 32.2059 135.441 30.8824C136.434 29.5588 137.426 27.9044 138.64 25.9191C138.971 25.3677 139.081 24.8162 139.081 24.2647C139.081 23.7132 138.971 23.3824 138.75 23.3824C138.64 23.3824 138.419 23.7132 137.978 24.375C137.537 25.0368 137.096 25.9191 136.434 26.8015C135.882 27.7941 135.331 28.5662 134.89 29.1177C134.449 29.7794 133.787 30.3309 133.015 30.8824C132.243 31.4338 131.691 31.7647 131.25 31.7647C130.699 31.7647 130.368 31.3235 130.368 30.3309C130.368 29.4485 130.588 28.2353 131.14 26.8015C131.691 25.3677 132.132 24.1544 132.574 23.3824C133.015 22.5 133.566 21.2868 134.449 19.6324C135.331 17.978 135.993 16.875 136.434 16.5441H133.566C132.353 16.3235 131.14 17.3162 130.037 19.1912Z" fill="#B6C0CB"/>
<path d="M160.919 24.1544C160.919 23.603 160.809 23.2721 160.588 23.2721C160.478 23.2721 160.257 23.603 159.927 24.2647C159.485 24.9265 159.044 25.8089 158.382 26.6912C157.831 27.5736 157.279 28.4559 156.728 29.0074C156.287 29.6691 155.625 30.2206 154.853 30.7721C154.081 31.3236 153.529 31.6544 153.088 31.6544C152.537 31.6544 152.206 31.3236 152.206 30.5515C152.206 29.3383 152.868 27.0221 154.302 23.3824C154.963 21.728 155.294 20.7353 155.515 20.1838C155.625 19.6324 155.735 19.0809 155.735 18.5294C155.735 16.875 154.853 16.103 152.978 16.103C150.331 16.103 147.574 17.4265 144.927 19.9633C145.257 18.75 145.478 17.978 145.478 17.6471C145.478 17.3162 145.368 16.9853 145.037 16.7647C144.706 16.5441 144.044 16.4338 142.941 16.4338H140.956C141.066 16.5441 141.066 16.875 141.066 17.0956C141.066 18.4191 140.515 20.625 139.302 23.9338C136.544 30.8824 135.11 34.7427 135.11 35.4044H139.743C139.743 35.2941 139.963 34.7427 140.184 33.75C140.404 32.7574 140.735 31.7647 140.956 30.9927C141.177 30.1103 141.618 29.0074 142.059 27.6838C142.5 26.3603 143.052 25.2574 143.603 24.2647C144.154 23.2721 144.706 22.2794 145.368 21.2868C146.029 20.2941 146.802 19.5221 147.574 19.0809C148.346 18.5294 149.228 18.3088 150 18.3088C150.882 18.3088 151.213 18.6397 151.213 19.3015C151.213 19.6324 151.103 19.9633 150.993 20.1838C148.566 26.3603 147.463 30.5515 147.463 32.6471C147.463 34.7427 148.346 35.7353 150.221 35.7353C151.213 35.7353 152.316 35.2941 153.64 34.3015C154.853 33.3088 155.956 32.2059 156.949 30.8824C157.941 29.5588 158.934 27.9044 160.147 25.9191C160.809 25.2574 160.919 24.7059 160.919 24.1544Z" fill="#B6C0CB"/>
</g>
<defs>
<clipPath id="clip0">
<rect width="160.809" height="45" fill="white"/>
</clipPath>
</defs>
</svg>
